<?xml version="1.0" encoding="UTF-8"?>
<svg version="1.1" xmlns="http://www.w3.org/2000/svg" width="4092" height="2048">
<path d="M0 0 C10.37983842 8.41809507 18.84977689 17.83551143 25.6484375 29.42578125 C25.6484375 30.08578125 25.6484375 30.74578125 25.6484375 31.42578125 C28.40220631 28.76842448 30.77783667 26.03661932 33.0859375 22.98828125 C52.097172 -0.82837599 77.29625374 -14.86376021 107.6484375 -18.57421875 C110.39684458 -18.70896967 113.12186207 -18.80688646 115.87109375 -18.84765625 C116.64548294 -18.86018433 117.41987213 -18.8727124 118.21772766 -18.88562012 C135.27495695 -19.10816828 151.27450396 -18.95243989 167.6484375 -13.57421875 C168.37562988 -13.34959961 169.10282227 -13.12498047 169.85205078 -12.89355469 C194.44487788 -5.19814489 214.68785619 11.23232472 227.0234375 33.86328125 C238.22674911 55.45369514 239.80085274 78.44238477 239.79370117 102.27416992 C239.79669736 104.27263959 239.80010094 106.27110868 239.80387878 108.26957703 C239.81267204 113.67012011 239.8150548 119.07064733 239.81569457 124.47119689 C239.81640725 127.84848363 239.8185456 131.22576639 239.82119179 134.60305214 C239.83042675 146.39349243 239.83452862 158.18392145 239.83374023 169.97436523 C239.83313858 180.9540477 239.84371236 191.93368118 239.8594839 202.91335124 C239.87256139 212.35481121 239.87792411 221.79625516 239.87728482 231.23772413 C239.87703008 236.87056379 239.87986882 242.5033598 239.89046288 248.13619041 C239.90014839 253.42957191 239.9002199 258.722868 239.89294624 264.01625252 C239.89190127 265.95603434 239.89425811 267.8958215 239.9003067 269.83559418 C239.90804129 272.48820837 239.90337227 275.14052858 239.89567566 277.7931366 C239.90081922 278.556084 239.90596279 279.3190314 239.91126221 280.10509843 C239.85468852 288.95944606 237.78824009 296.85422011 231.73828125 303.53515625 C225.52496146 309.54026956 219.28812821 312.34880548 210.6484375 312.80078125 C202.16765491 312.3904208 194.70242463 309.38882866 188.6484375 303.42578125 C181.88783737 295.44827309 180.3350815 287.1044368 180.39015198 276.86943054 C180.38647627 276.05758059 180.38280057 275.24573063 180.37901348 274.40927917 C180.36911035 271.71508847 180.37316886 269.02110731 180.37719727 266.3269043 C180.37280575 264.38447858 180.36750205 262.44205475 180.36135864 260.49963379 C180.34989023 256.32874591 180.34440154 252.15790862 180.34347725 247.98700523 C180.34153013 241.3837717 180.3234415 234.78064219 180.30271912 228.17744446 C180.25361803 211.77632506 180.22266997 195.3751775 180.20141602 178.97399902 C180.18486965 166.22473893 180.16199213 153.47556842 180.11839527 140.72636825 C180.09668705 134.17064009 180.08855469 127.6150824 180.09078801 121.05932081 C180.08911419 116.97027066 180.07502237 112.88133063 180.05757523 108.79232025 C180.05200452 106.90583158 180.05146373 105.0193198 180.05651283 103.13282967 C180.0804347 93.14249412 179.8205004 84.01926962 176.6484375 74.42578125 C176.22913892 73.12130555 176.22913892 73.12130555 175.80136967 71.7904768 C170.34671463 55.64808922 157.53280272 43.01915944 142.6484375 35.42578125 C126.98914406 28.64389747 107.46902162 29.4389705 91.6484375 35.42578125 C74.80678192 42.29086655 60.87262104 52.85856759 52.6484375 69.42578125 C49.34086733 77.86324527 47.49759916 85.48061661 47.51040649 94.54580688 C47.50758521 95.35902826 47.50476393 96.17224963 47.50185716 97.01011407 C47.49352988 99.73282663 47.4921745 102.45549842 47.49072266 105.17822266 C47.48605298 107.13153192 47.48090916 109.0848401 47.47532654 111.03814697 C47.46405329 115.24456302 47.45561529 119.450972 47.44920731 123.65739822 C47.43851567 130.31462482 47.4182669 136.9718008 47.39608765 143.6289978 C47.33420507 162.55977047 47.2801845 181.49054025 47.24707031 200.42138672 C47.22870128 210.87682966 47.19973615 221.33218784 47.1590656 231.78756845 C47.13803315 237.31719793 47.12254366 242.84672078 47.12025833 248.37639236 C47.11810442 253.58194978 47.10215933 258.78728523 47.07586861 263.99277496 C47.0687023 265.89741414 47.06656162 267.80208028 47.06997108 269.70672989 C47.1072219 294.48428828 47.1072219 294.48428828 38.6875 304.48046875 C31.33712583 311.49289468 23.29618513 312.89915591 13.453125 312.69921875 C5.66485647 312.13948693 0.41075698 309.03260505 -4.84765625 303.359375 C-10.1802131 296.50323048 -11.50163253 289.97733063 -11.48959351 281.44619751 C-11.49241479 280.63594726 -11.49523607 279.82569701 -11.49814284 278.99089372 C-11.50648475 276.27207704 -11.50782678 273.5533011 -11.50927734 270.83447266 C-11.5139461 268.88617844 -11.51908977 266.93788531 -11.52467346 264.98959351 C-11.53595561 260.79026008 -11.54438946 256.59093377 -11.55079269 252.39159012 C-11.56148099 245.74202083 -11.58173035 239.09250229 -11.60391235 232.44296265 C-11.66580134 213.53247414 -11.71977089 194.62198808 -11.75292969 175.71142578 C-11.77131881 165.26987823 -11.80031205 154.82841522 -11.8409344 144.38692987 C-11.86193936 138.86557369 -11.87745235 133.34432379 -11.87974167 127.82292557 C-11.88190107 122.62065558 -11.89790138 117.41860652 -11.92413139 112.21640396 C-11.93127794 110.31625083 -11.93344815 108.41607079 -11.93002892 106.51590729 C-11.89621528 84.13479211 -16.00309621 65.91905597 -31.62890625 48.953125 C-45.72295946 35.28118985 -63.85000629 29.94647443 -83.1875 30.15625 C-101.12389113 31.01702716 -117.80730995 38.71269716 -130.01123047 51.87792969 C-140.96498776 64.5276239 -146.52173151 79.94099874 -146.48286438 96.6660614 C-146.48498009 97.4801372 -146.48709581 98.294213 -146.48927563 99.13295776 C-146.49525256 101.85256817 -146.49427713 104.57213188 -146.4934082 107.29174805 C-146.49644126 109.24520445 -146.49996312 111.19866015 -146.50393677 113.15211487 C-146.51181536 117.3557868 -146.51696679 121.55945029 -146.52022743 125.76312828 C-146.52614799 132.41623391 -146.54269863 139.06928634 -146.56156921 145.72236633 C-146.56790635 148.00221917 -146.57423198 150.28207204 -146.58054638 152.56192493 C-146.58371219 153.70358321 -146.586878 154.84524148 -146.59013975 156.02149546 C-146.63217679 171.50642702 -146.66518607 186.99133353 -146.67749023 202.47631836 C-146.68587944 212.92702456 -146.7084013 223.37759867 -146.7468459 233.82823879 C-146.76657581 239.35453169 -146.77902122 244.88062726 -146.77401161 250.40695763 C-146.76935373 255.60847755 -146.78323304 260.80962372 -146.81102371 266.01106834 C-146.817916 267.9140958 -146.81808331 269.81716206 -146.81082344 271.72018814 C-146.73600924 293.54471591 -146.73600924 293.54471591 -153.6015625 302.80078125 C-160.35302083 309.24535511 -167.00710719 311.99477679 -176.2265625 312.73828125 C-184.82887422 312.45153753 -192.1432613 309.34371647 -198.3515625 303.42578125 C-204.99331167 295.9221257 -205.64714304 288.56393705 -205.62571716 278.83795166 C-205.63095384 277.66381769 -205.63619052 276.48968372 -205.64158589 275.27996993 C-205.65397901 272.02914057 -205.65742979 268.7784454 -205.65698898 265.52759695 C-205.65864002 262.01825589 -205.67171186 258.50895395 -205.68318176 254.99963379 C-205.70600827 247.3301413 -205.71394977 239.66067652 -205.71900821 231.99115467 C-205.72226781 227.19992728 -205.72879186 222.4087079 -205.7360096 217.61748505 C-205.75557207 204.34482711 -205.77197848 191.07217661 -205.77488613 177.79950333 C-205.7750737 176.95055763 -205.77526127 176.10161194 -205.77545452 175.22694062 C-205.77582077 173.50601943 -205.77618447 171.78509825 -205.77654564 170.06417707 C-205.77672845 169.20994199 -205.77691126 168.35570692 -205.77709961 167.47558594 C-205.77728016 166.620305 -205.77746071 165.76502406 -205.77764673 164.88382551 C-205.78118803 151.02666012 -205.80820924 137.16965015 -205.8455975 123.31253865 C-205.88370024 109.07639587 -205.90304375 94.84033018 -205.90334564 80.60413527 C-205.90392975 72.61471777 -205.91239179 64.62548572 -205.94134331 56.63611603 C-205.9658835 49.83294241 -205.97312237 43.03002191 -205.95809578 36.22681597 C-205.95093764 32.75809373 -205.95173591 29.28987103 -205.97450638 25.82120514 C-205.9949363 22.05421693 -205.98443052 18.28851735 -205.96629333 14.52154541 C-205.9794933 13.43417343 -205.99269327 12.34680146 -206.00629324 11.22647882 C-205.90675144 2.15694746 -203.15641001 -4.67395706 -197.1015625 -11.44921875 C-189.38837319 -18.39108913 -181.54087847 -19.44913125 -171.46484375 -19.02734375 C-164.51511698 -18.46235112 -159.68204676 -15.50802484 -154.4140625 -11.13671875 C-150.13118316 -5.81556563 -148.84433249 -0.93799157 -148.2265625 5.67578125 C-147.88208828 10.7035371 -147.88208828 10.7035371 -146.3515625 15.42578125 C-145.56394531 14.59175781 -144.77632812 13.75773438 -143.96484375 12.8984375 C-107.83089703 -24.71539782 -42.37961619 -33.22532732 0 0 Z " fill="#FF0F22" transform="translate(2218.3515625,776.57421875)"/>
<path d="M0 0 C6.48966416 4.76849236 10.36724873 12.55563577 11.61499023 20.38525391 C11.84876692 24.38995013 11.90491058 28.373516 11.890625 32.3828125 C11.90714021 33.90896652 11.92638413 35.43509305 11.94812012 36.96118164 C11.9895503 40.21933186 12.01356429 43.47695635 12.02392578 46.73535156 C12.04184909 51.86586721 12.10856828 56.99504334 12.18359375 62.125 C12.33754269 73.02315418 12.44445268 83.92157051 12.546875 94.8203125 C12.61618179 102.15368476 12.68817015 109.48702143 12.765625 116.8203125 C12.77501099 117.71575775 12.78439697 118.611203 12.79406738 119.53378296 C13.0178638 140.30026467 13.5110155 161.0598517 14.046875 181.8203125 C15.16937904 180.79344582 15.16937904 180.79344582 16.31455994 179.74583435 C17.30983614 178.83758204 18.30516463 177.92938703 19.30053711 177.02124023 C19.79216087 176.57122398 20.28378464 176.12120773 20.79030609 175.65755463 C24.59063557 172.19338341 28.47959334 168.94307809 32.609375 165.8828125 C33.27646484 165.3875708 33.94355469 164.8923291 34.63085938 164.38208008 C64.90955298 142.27989653 96.10626732 132.61168243 133.66235352 137.89672852 C165.16604448 143.09297147 193.68423901 157.07680231 217.046875 178.8203125 C217.67835449 179.40796387 218.30983398 179.99561523 218.96044922 180.60107422 C252.78613095 212.46442488 268.90350782 252.53346427 271.234375 298.51953125 C271.95448268 335.83011066 262.14504328 376.26113384 240.046875 406.8203125 C239.35078125 407.79742188 238.6546875 408.77453125 237.9375 409.78125 C233.02519969 416.50601973 227.76527955 422.77068861 222.046875 428.8203125 C221.30050781 429.63113281 220.55414062 430.44195313 219.78515625 431.27734375 C195.53353777 456.73152182 161.67627848 470.9698805 126.8828125 472.01171875 C84.28679063 472.73941882 52.37698969 465.86577901 19.80078125 438.046875 C16.97340381 435.76091026 14.09939482 433.78939009 11.046875 431.8203125 C10.75404056 433.54928179 10.46270298 435.27850458 10.171875 437.0078125 C9.88570312 438.6475 9.88570312 438.6475 9.59375 440.3203125 C9.23731529 442.60149464 8.95231304 444.89533269 8.75 447.1953125 C8.03873942 454.37565739 6.60643752 458.91066605 1.359375 464.0078125 C-7.0751457 470.61865305 -16.66280189 470.86210141 -26.953125 469.8203125 C-33.85265238 468.09543066 -40.43413747 463.85528644 -44.23828125 457.76171875 C-47.04318917 452.28259754 -48.07908484 447.924554 -48.09013939 441.71678066 C-48.09279122 440.98524929 -48.09544304 440.25371792 -48.09817523 439.50001892 C-48.10588253 437.02949507 -48.10642795 434.5590208 -48.10702515 432.08848572 C-48.11103883 430.30698394 -48.1154769 428.52548308 -48.1203047 426.74398333 C-48.13228663 421.83318671 -48.13792241 416.92239993 -48.14248586 412.01159155 C-48.14843586 406.72100848 -48.16004724 401.43043719 -48.17077637 396.13986206 C-48.19531473 383.35489807 -48.2099299 370.56993017 -48.22283643 357.78494987 C-48.22654741 354.17483699 -48.23052072 350.56472451 -48.2345891 346.95461202 C-48.25982533 324.54423578 -48.28188208 302.13385895 -48.29431725 279.72347164 C-48.29724703 274.53089839 -48.30020868 269.33832516 -48.30322266 264.14575195 C-48.30396871 262.85513537 -48.30471476 261.56451878 -48.30548342 260.2347926 C-48.31813809 239.32571757 -48.35136176 218.41672755 -48.39302449 197.50769227 C-48.43543323 176.04861295 -48.45901109 154.58957716 -48.46423781 133.13045603 C-48.46765319 121.07882996 -48.47942341 109.02733673 -48.51234055 96.97575188 C-48.54032763 86.71221532 -48.55134624 76.44883883 -48.54014508 66.18526708 C-48.534955 60.94856539 -48.53786825 55.71219897 -48.56261063 50.47554588 C-48.58508307 45.67927409 -48.58437866 40.88357879 -48.56540675 36.08729703 C-48.56260395 34.35437251 -48.5682209 32.62140906 -48.58321969 30.88854717 C-48.67651918 19.40498704 -47.56370145 10.85189906 -39.703125 1.9453125 C-28.34979035 -8.31635536 -12.67117977 -7.65339258 0 0 Z M49.046875 213.8203125 C48.41394531 214.33335937 47.78101562 214.84640625 47.12890625 215.375 C24.56316978 233.80617549 11.89957561 263.35970352 8.359375 291.6328125 C5.63276335 326.90472491 14.4270065 359.2071596 37.265625 386.46875 C53.57723379 405.13520372 74.23046162 417.60623156 99.046875 420.8203125 C128.01493159 422.54407644 151.36072795 414.330188 173.13769531 395.39941406 C194.48775722 376.20494547 208.52662565 346.83471375 210.26782227 318.18481445 C210.38649991 314.22864087 210.43347751 310.27782273 210.421875 306.3203125 C210.42133118 305.6195459 210.42078735 304.9187793 210.42022705 304.19677734 C210.30074578 270.58908448 197.85558004 242.27797651 174.734375 218.0703125 C156.70479535 200.65625193 134.14753269 191.23032975 108.984375 190.5703125 C86.49661 191.20011811 65.94957079 199.04976664 49.046875 213.8203125 Z " fill="#FF0F22" transform="translate(2557.953125,619.1796875)"/>
<path d="M0 0 C6.23012247 4.74161536 9.55846884 10.67540651 12 18 C12.09416279 19.64215021 12.13090266 21.28787297 12.13422108 22.93271732 C12.13867892 23.95664178 12.14313676 24.98056624 12.14772969 26.03551871 C12.14745315 27.72808732 12.14745315 27.72808732 12.14717102 29.45484924 C12.15084771 30.65092125 12.1545244 31.84699326 12.1583125 33.07930988 C12.16744158 36.40530222 12.17204953 39.7312452 12.17470181 43.05724537 C12.17860452 46.64229228 12.188183 50.22732489 12.19691467 53.81236267 C12.21668178 62.47419157 12.22674638 71.13602163 12.23564246 79.79786745 C12.24002565 83.87749791 12.24539244 87.95712708 12.25063133 92.03675652 C12.26764516 105.60009905 12.28213852 119.16344077 12.28938007 132.72679234 C12.29128996 136.24697941 12.29321029 139.76716647 12.29516602 143.28735352 C12.29564976 144.16227465 12.2961335 145.03719578 12.2966319 145.93862968 C12.30492913 160.10634976 12.33026016 174.27398533 12.36274669 188.44166852 C12.39583288 202.98959313 12.41383031 217.53747481 12.41702431 232.08543724 C12.41918815 240.25260942 12.4279181 248.41965841 12.45348549 256.5867939 C12.47521395 263.54371842 12.48323246 270.50048984 12.47351871 277.45744444 C12.46897994 281.00506566 12.47083498 284.55237115 12.49028015 288.09994888 C12.51121213 291.95218453 12.50090715 295.80398751 12.48774719 299.65626526 C12.50420106 301.3254113 12.50420106 301.3254113 12.52098733 303.02827746 C12.45153212 311.46384999 10.73739629 320.24066857 4.70703125 326.6171875 C-3.25448121 333.06655915 -11.23241216 335.05465161 -21.22265625 334.44921875 C-29.40393793 333.47626384 -34.91600343 330.79375606 -40.625 324.87890625 C-44.17279949 320.03091888 -44.55039946 314.80252344 -45.125 309 C-45.21136719 308.2059375 -45.29773437 307.411875 -45.38671875 306.59375 C-45.79419054 302.71306626 -46.11030535 298.90796105 -46 295 C-47.83585553 296.39260959 -49.66898649 297.7885412 -51.5 299.1875 C-52.07951416 299.6294873 -52.65902832 300.07147461 -53.25610352 300.52685547 C-56.53785298 303.04766368 -59.76427101 305.61624203 -62.93359375 308.27734375 C-94.34431705 334.61971094 -133.24392256 338.61866354 -173.1640625 335.65234375 C-174.81840516 335.50502179 -176.47211805 335.35039464 -178.125 335.1875 C-178.84623047 335.11756836 -179.56746094 335.04763672 -180.31054688 334.97558594 C-191.69425319 333.66849066 -201.74285022 330.13215247 -212.0625 325.25 C-213.15626953 324.74984375 -214.25003906 324.2496875 -215.37695312 323.734375 C-234.08600537 315.00867782 -251.93527923 302.09224479 -265 286 C-266.15822266 284.58074219 -266.15822266 284.58074219 -267.33984375 283.1328125 C-298.34828765 244.3949202 -310.92920551 194.49830408 -306.3125 145.4375 C-302.62458647 112.22879999 -288.80684349 82.14697621 -267 57 C-266.2471875 56.12472656 -265.494375 55.24945312 -264.71875 54.34765625 C-260.12763186 49.11975631 -255.35816433 44.42928548 -250 40 C-249.19046875 39.30261719 -248.3809375 38.60523438 -247.546875 37.88671875 C-214.15079868 9.61723309 -173.24842511 -1.15040609 -130 1 C-100.57383987 3.90818396 -70.35706094 25.64293906 -50 46 C-49.93006836 45.19892822 -49.86013672 44.39785645 -49.78808594 43.57250977 C-49.45827491 39.90084342 -49.10433511 36.23187755 -48.75 32.5625 C-48.58564453 30.67241211 -48.58564453 30.67241211 -48.41796875 28.74414062 C-47.38003424 18.28285333 -45.13360235 9.18617175 -37 2 C-25.9531541 -5.41579568 -11.77502772 -7.14084865 0 0 Z M-219 91 C-233.65128257 108.54984406 -243.45177853 130.2314757 -246 153 C-246.16435547 154.36125 -246.16435547 154.36125 -246.33203125 155.75 C-249.72274344 187.57748514 -241.95294366 219.73770067 -222.125 245.0625 C-220.75872744 246.7155855 -219.3836673 248.36144662 -218 250 C-217.33484375 250.81210937 -216.6696875 251.62421875 -215.984375 252.4609375 C-203.08685879 267.6035769 -186.1790796 277.83849132 -167 283 C-166.19304688 283.22429687 -165.38609375 283.44859375 -164.5546875 283.6796875 C-141.72431489 288.90419283 -117.45481964 283.74545127 -97.5703125 271.96875 C-78.02395663 259.03159359 -63.33638436 241.47712496 -54 220 C-53.52046875 218.93652344 -53.0409375 217.87304688 -52.546875 216.77734375 C-47.37013694 204.44360941 -44.45430037 190.3722325 -44 177 C-43.96003906 175.95199219 -43.92007813 174.90398437 -43.87890625 173.82421875 C-43.22442733 139.82981382 -54.78071343 108.89826139 -78.32080078 84.26782227 C-96.40804515 65.91869222 -119.59113995 55.52921384 -145.5 54.75 C-175.03963796 55.6886427 -199.56384184 68.96693081 -219 91 Z " fill="#FF0F22" transform="translate(3353,755)"/>
<path d="M0 0 C6.48455497 4.88593204 9.6975179 10.27262368 12 18 C12.53703472 22.10816602 12.54126598 26.15774135 12.50793457 30.29663086 C12.51729451 32.09971034 12.51729451 32.09971034 12.52684355 33.93921566 C12.53996913 37.24970349 12.53533966 40.55927405 12.52289867 43.86970472 C12.51380692 47.44988005 12.52783824 51.0299782 12.53881836 54.61013794 C12.55656439 61.61331036 12.55278115 68.61631087 12.5411678 75.61948991 C12.53211827 81.31330664 12.53091603 87.00707535 12.53526306 92.70089722 C12.53587599 93.51261129 12.53648893 94.32432537 12.53712043 95.16063684 C12.53839939 96.8098422 12.53969624 98.45904755 12.5410108 100.10825288 C12.55240512 115.55710894 12.53932094 131.00586991 12.51780933 146.45471036 C12.49993938 159.69804461 12.50304381 172.94123859 12.52148438 186.18457031 C12.5429114 201.57978021 12.55130659 216.97490686 12.53903532 232.37012959 C12.53776118 234.01312064 12.5365037 235.6561117 12.53526306 237.29910278 C12.53433741 238.51153991 12.53433741 238.51153991 12.53339306 239.74847072 C12.52994565 245.43258446 12.53575534 251.1166452 12.54518127 256.80075073 C12.55642302 263.73191334 12.55331566 270.66289484 12.5320583 277.59403682 C12.52157697 281.12751143 12.5173757 284.66068456 12.53065491 288.19415665 C12.54485468 292.03072969 12.52785047 295.86681373 12.50793457 299.70336914 C12.5213189 301.36535292 12.5213189 301.36535292 12.53497362 303.06091213 C12.45036603 311.47919162 10.72384712 320.2549955 4.70703125 326.6171875 C-3.25448121 333.06655915 -11.23241216 335.05465161 -21.22265625 334.44921875 C-29.40393793 333.47626384 -34.91600343 330.79375606 -40.625 324.87890625 C-44.17279949 320.03091888 -44.55039946 314.80252344 -45.125 309 C-45.21136719 308.2059375 -45.29773437 307.411875 -45.38671875 306.59375 C-45.79419054 302.71306626 -46.11030535 298.90796105 -46 295 C-47.83585553 296.39260959 -49.66898649 297.7885412 -51.5 299.1875 C-52.07951416 299.6294873 -52.65902832 300.07147461 -53.25610352 300.52685547 C-56.53785298 303.04766368 -59.76427101 305.61624203 -62.93359375 308.27734375 C-94.9468014 335.12497992 -134.97294846 338.79441858 -175.57104492 335.4855957 C-189.1853045 334.16508505 -200.76859838 330.29160165 -213.1875 324.6875 C-214.18547607 324.23769775 -215.18345215 323.78789551 -216.21166992 323.32446289 C-230.98447019 316.4522865 -244.86173451 306.9471898 -256 295 C-256.78375 294.236875 -257.5675 293.47375 -258.375 292.6875 C-266.78765395 284.07454476 -273.59221128 275.14820715 -280 265 C-280.92619141 263.56914063 -280.92619141 263.56914063 -281.87109375 262.109375 C-297.44525919 236.93174033 -306.18283804 205.51997588 -307 176 C-307.03867188 174.9164624 -307.03867188 174.9164624 -307.078125 173.81103516 C-308.45244384 131.30163546 -296.49830811 89.05051667 -267.125 57.4375 C-266.24070312 56.50808594 -265.35640625 55.57867188 -264.4453125 54.62109375 C-261.98740804 52.05407925 -261.98740804 52.05407925 -259.88671875 49.3515625 C-256.98558327 45.73565451 -253.55194173 42.96175629 -250 40 C-249.49597656 39.56768066 -248.99195313 39.13536133 -248.47265625 38.68994141 C-215.0286843 10.07567246 -173.58790675 -1.71769551 -130 1 C-100.51331154 4.06432411 -70.43830336 25.56169664 -50 46 C-49.93006836 45.19892822 -49.86013672 44.39785645 -49.78808594 43.57250977 C-49.45827491 39.90084342 -49.10433511 36.23187755 -48.75 32.5625 C-48.58564453 30.67241211 -48.58564453 30.67241211 -48.41796875 28.74414062 C-47.38003424 18.28285333 -45.13360235 9.18617175 -37 2 C-25.99140414 -5.39011827 -11.71307623 -7.19866143 0 0 Z M-219 91 C-233.64975624 108.54801576 -243.45560408 130.23261312 -246 153 C-246.10957031 153.91910156 -246.21914062 154.83820313 -246.33203125 155.78515625 C-249.86496971 189.27741282 -240.93987959 221.29064681 -220.1484375 247.6640625 C-205.99150306 265.08635076 -188.75794002 277.09533669 -167 283 C-166.12730469 283.24492188 -165.25460937 283.48984375 -164.35546875 283.7421875 C-140.97838633 289.11707574 -116.24790619 283.25363746 -96.07421875 271.0703125 C-69.80044967 253.37641464 -52.74415413 225.98071023 -46.25 195.25 C-40.32755598 163.02788932 -45.50250821 129.14547623 -63.82421875 101.609375 C-79.7756402 78.9598074 -102.06101822 61.25473221 -129.82421875 56.3203125 C-165.03711324 51.20480743 -195.62303055 64.49957842 -219 91 Z " fill="#FF0F22" transform="translate(1951,755)"/>
<path d="M0 0 C1.59126185 1.47063394 3.17487861 2.94959171 4.75 4.4375 C5.49765625 5.13230469 6.2453125 5.82710937 7.015625 6.54296875 C34.71356691 33.12718223 51.86271928 73.63869942 52.92700195 111.93383789 C52.95308769 113.5091938 52.9732837 115.08465576 52.98828125 116.66015625 C52.9980751 117.51503128 53.00786896 118.36990631 53.01795959 119.25068665 C53.1849903 137.6025484 53.2778942 155.52442498 48.75 173.4375 C48.53037598 174.31438477 48.31075195 175.19126953 48.08447266 176.09472656 C41.08658293 203.10568945 27.96985712 226.16534797 8.75 246.4375 C7.41001953 247.87416016 7.41001953 247.87416016 6.04296875 249.33984375 C-21.1625038 277.93358671 -59.35155316 292.14177231 -98.34790039 293.54931641 C-148.41792515 294.45817172 -193.18208959 282.24663803 -229.91601562 247.05493164 C-259.91002705 217.63365567 -274.19678586 175.92497862 -275.25 134.4375 C-275.30994141 132.50003906 -275.30994141 132.50003906 -275.37109375 130.5234375 C-276.35713936 83.47337487 -261.938786 40.00444741 -229.38891602 5.59887695 C-170.40571525 -55.17243242 -62.19175288 -55.08960826 0 0 Z M-194.76757812 48.70068359 C-208.39910983 64.67148672 -215.71622871 85.81378018 -218.25 106.4375 C-218.36085938 107.27796875 -218.47171875 108.1184375 -218.5859375 108.984375 C-222.10546404 140.37474683 -217.54335006 176.5796076 -198.25 202.4375 C-195.3778915 205.90242805 -192.35782449 209.18408374 -189.25 212.4375 C-188.70988281 213.05238281 -188.16976563 213.66726563 -187.61328125 214.30078125 C-171.64503336 231.79747604 -144.77439276 240.24828954 -121.85498047 241.64428711 C-118.40054162 241.73973414 -114.95569481 241.76680085 -111.5 241.75 C-110.2742627 241.74436035 -109.04852539 241.7387207 -107.78564453 241.73291016 C-78.37804531 241.34091233 -52.52827676 230.94124626 -31.0625 210.75 C-8.3200287 187.0476192 -2.47430599 154.55729382 -3.00390625 122.82421875 C-3.97865079 90.67704693 -13.67038557 60.79720433 -37.18359375 38.1015625 C-59.16158321 18.4328806 -88.81562237 11.13937749 -117.75878906 12.28955078 C-147.97123209 14.0838217 -174.29260356 26.18715819 -194.76757812 48.70068359 Z " fill="#FF0F22" transform="translate(1266.25,796.5625)"/>
<path d="M0 0 C2.17866696 -0.0021823 4.35682278 -0.02038386 6.53540039 -0.03930664 C32.13037054 -0.14350943 32.13037054 -0.14350943 40.63110352 7.82592773 C47.39204275 15.30196631 48.25991039 23.37988528 48.16235352 33.20874023 C47.63262932 38.81498799 45.50420532 42.56220093 41.56860352 46.49780273 C32.00316428 52.50400876 22.15839981 52.40397817 11.23852539 52.61499023 C3.42217083 52.87535458 -5.95154356 53.92491347 -12.11889648 59.18530273 C-16.58947296 66.02802183 -17.24601794 72.6751569 -17.23242188 80.7512207 C-17.2325679 81.48361465 -17.23271393 82.21600861 -17.23286438 82.97059631 C-17.23217198 85.37292522 -17.2244113 87.775175 -17.21655273 90.17749023 C-17.21468616 91.85043292 -17.21326339 93.52337615 -17.21226501 95.19631958 C-17.20845867 99.58570888 -17.19864456 103.97506476 -17.18756104 108.36444092 C-17.17730633 112.84899442 -17.17275871 117.33355337 -17.16772461 121.81811523 C-17.15702052 130.60719302 -17.13996683 139.39624371 -17.11889648 148.18530273 C-15.37987061 148.16173706 -15.37987061 148.16173706 -13.60571289 148.13769531 C-9.26333694 148.0829853 -4.92099085 148.04880465 -0.57836914 148.02050781 C1.29342794 148.00551409 3.16519046 147.98511223 5.03686523 147.95898438 C29.30857178 147.62888917 29.30857178 147.62888917 38.34594727 154.65795898 C43.86706598 160.1509804 46.0347456 166.13495693 46.19360352 173.81030273 C46.10916299 181.2640978 45.11140675 186.53334488 40.11547852 192.18139648 C31.95062669 199.91228965 23.70712699 200.6601704 12.88110352 200.87280273 C11.76348633 200.90696289 10.64586914 200.94112305 9.49438477 200.97631836 C3.1396803 201.15384431 -3.21150988 201.20096654 -9.56811523 201.19238281 C-10.29881226 201.19187172 -11.02950928 201.19136063 -11.78234863 201.19083405 C-13.56119838 201.18951537 -15.34004758 201.18748434 -17.11889648 201.18530273 C-17.12128484 202.45936415 -17.12367319 203.73342556 -17.12613392 205.04609489 C-17.18353093 235.31013009 -17.25628784 265.5740852 -17.34788277 295.83803474 C-17.35915052 299.56544405 -17.37028904 303.29285374 -17.38134766 307.02026367 C-17.38355134 307.76230365 -17.38575502 308.50434362 -17.38802548 309.26886965 C-17.42336894 321.27367601 -17.44824972 333.27848231 -17.4692435 345.28332137 C-17.4910291 357.60732644 -17.52410567 369.93126418 -17.56759804 382.25521195 C-17.59406731 389.85578894 -17.61179744 397.45628206 -17.61824252 405.05690284 C-17.62413495 410.89141843 -17.64575953 416.72581024 -17.673172 422.56026649 C-17.68195257 424.94908767 -17.68567477 427.33793374 -17.68390465 429.7267704 C-17.68224798 432.99465097 -17.69898554 436.26195352 -17.72016907 439.52975464 C-17.71532149 440.46947235 -17.71047392 441.40919006 -17.70547944 442.37738407 C-17.81060745 452.24119736 -20.05512432 461.00966088 -27.11889648 468.18530273 C-33.69402395 473.63683247 -41.52027004 475.71870562 -50.02124023 475.43139648 C-57.78868176 474.5201324 -64.62664577 471.85396407 -70.11889648 466.18530273 C-74.29808394 460.33990329 -77.2054756 455.20758159 -77.32322693 447.94039917 C-77.34296759 446.84467968 -77.36270824 445.74896019 -77.3830471 444.62003708 C-77.39956636 443.40906986 -77.41608562 442.19810265 -77.43310547 440.95043945 C-77.46409301 439.02060148 -77.46409301 439.02060148 -77.49570656 437.05177689 C-77.55212068 433.46022621 -77.60097761 429.86860887 -77.64759374 426.27691889 C-77.67768793 423.97486742 -77.70936044 421.67284181 -77.74130058 419.37081528 C-78.3008746 378.4618012 -78.23624453 337.55042419 -78.19092405 296.63850951 C-78.1794396 286.08101009 -78.17417274 275.52350974 -78.16922009 264.96600556 C-78.15896155 243.37243096 -78.14155142 221.77886768 -78.11889648 200.18530273 C-79.58528564 200.22457886 -79.58528564 200.22457886 -81.08129883 200.26464844 C-84.75261001 200.3560221 -88.42382354 200.41286311 -92.09594727 200.45996094 C-93.67684908 200.48490899 -95.25763791 200.51888079 -96.83813477 200.5625 C-107.21119047 200.84134558 -115.81684791 200.78630947 -124.00854492 193.50585938 C-129.44766615 187.98695293 -131.23966608 181.2698431 -131.49389648 173.68530273 C-131.24125721 166.44971404 -129.88585763 160.69930818 -124.86889648 155.31030273 C-118.24239934 149.27096357 -110.82149752 148.05039805 -102.06811523 148.08764648 C-101.40930862 148.08906143 -100.75050201 148.09047638 -100.07173157 148.0919342 C-97.98323886 148.09749773 -95.89485637 148.11004327 -93.80639648 148.12280273 C-92.383872 148.12782246 -90.96134582 148.13238454 -89.53881836 148.13647461 C-86.06547572 148.14745516 -82.59219687 148.16469438 -79.11889648 148.18530273 C-79.12252197 146.95537598 -79.12614746 145.72544922 -79.12988281 144.45825195 C-79.15864601 130.0876013 -79.07526418 115.71881394 -78.8831768 101.34938431 C-78.83831709 97.98156125 -78.79895293 94.61387163 -78.77246094 91.24584961 C-78.54248241 62.82883315 -76.38162004 38.19996119 -55.11889648 17.18530273 C-39.28215015 2.69697502 -20.60995805 -0.00230459 0 0 Z " fill="#FF0F22" transform="translate(811.118896484375,613.814697265625)"/>
<path d="M0 0 C5.69986345 4.37233115 9.70188302 10.63156696 11.078125 17.71484375 C11.17309598 20.09620166 11.20904996 22.48008792 11.21234608 24.86333656 C11.21469831 25.58757991 11.21705054 26.31182326 11.21947405 27.05801338 C11.22615908 29.4977258 11.22570597 31.9373849 11.22529602 34.37710571 C11.22859495 36.13884639 11.23232058 37.90058631 11.2364375 39.66232526 C11.24646225 44.51385646 11.25017506 49.36537528 11.25282681 54.21691537 C11.25672844 59.44544771 11.26630685 64.67397025 11.27503967 69.90249634 C11.29480776 82.53428159 11.30487059 95.16606764 11.31376746 107.7978645 C11.31814967 113.74486567 11.32351664 119.69186595 11.32875633 125.63886642 C11.34576872 145.40526202 11.36026333 165.17165706 11.36750507 184.93805885 C11.369415 190.06824367 11.37133533 195.19842848 11.37329102 200.32861328 C11.37377476 201.60371129 11.3742585 202.87880931 11.3747569 204.19254665 C11.38305885 224.85258296 11.40839853 245.51256141 11.44087169 266.17257245 C11.47393159 287.37856125 11.49195286 308.58452062 11.49514931 329.79053533 C11.49731536 341.69904313 11.50607801 353.60746654 11.53161049 365.51594925 C11.55330281 375.65684541 11.56137509 385.79763668 11.55164371 395.93855341 C11.54709483 401.11243286 11.54901958 406.28609583 11.56840515 411.45994568 C11.58600731 416.19874932 11.58506295 420.93717804 11.56950786 425.6759855 C11.56712732 427.38801554 11.57147843 429.10007135 11.58333651 430.81206198 C11.66212053 442.94004358 10.65257135 452.76166164 2.015625 461.95703125 C-5.36263006 468.65101266 -12.20484296 470.27319741 -22.05078125 470.0546875 C-30.08709938 469.34917824 -36.04577571 465.45423874 -41.453125 459.61328125 C-46.55120556 453.02374096 -48.04538206 446.78461564 -48.05330276 438.56355762 C-48.0553554 437.83901468 -48.05740803 437.11447173 -48.05952287 436.36797294 C-48.06520115 433.92724924 -48.0637346 431.48658182 -48.06231689 429.04585266 C-48.06490006 427.28339946 -48.06791308 425.52094684 -48.0713203 423.75849503 C-48.07939933 418.90503143 -48.08118037 414.05158261 -48.08191776 409.19811308 C-48.08376675 403.96755616 -48.09131332 398.73700695 -48.09805298 393.50645447 C-48.11164333 382.06430424 -48.11766214 370.6221575 -48.12206364 359.18000054 C-48.12482492 352.03729379 -48.12906207 344.89458839 -48.13356781 337.75188255 C-48.14576149 317.98119472 -48.15606055 298.21050798 -48.1594429 278.43981647 C-48.15966247 277.1740834 -48.15988203 275.90835033 -48.16010825 274.60426171 C-48.16043567 272.7010824 -48.16043567 272.7010824 -48.1607697 270.75945503 C-48.16121317 268.18835088 -48.16165973 265.61724673 -48.16210938 263.04614258 C-48.1623308 261.77078226 -48.16255223 260.49542193 -48.16278037 259.18141433 C-48.1667287 238.51424735 -48.18418335 217.84711562 -48.2074689 197.17996226 C-48.23117527 175.96832799 -48.24364443 154.75671141 -48.24481082 133.54506367 C-48.24572799 121.63269233 -48.25149093 109.7203669 -48.26963043 97.80800819 C-48.28502177 87.66453281 -48.29015759 77.52111755 -48.28189233 67.37763271 C-48.27798239 62.20188861 -48.27893226 57.0262656 -48.29294968 51.85053635 C-48.30566781 47.11122102 -48.30450938 42.37211805 -48.29235896 37.6328031 C-48.29039835 35.9194475 -48.2934972 34.20607695 -48.30220333 32.49274234 C-48.35545719 21.30296463 -48.03577262 11.65281302 -40.734375 2.5078125 C-29.86411473 -8.24531135 -12.16642005 -8.1356752 0 0 Z " fill="#FF0F22" transform="translate(953.921875,619.28515625)"/>
<path d="M0 0 C5.05100183 3.71429419 8.20000362 8.51086908 9.27319336 14.6784668 C9.62420896 18.5582853 9.84178973 22.42014603 10 26.3125 C10.07149242 27.6732877 10.1450437 29.03396887 10.22070312 30.39453125 C10.39652821 33.70004292 10.55149863 37.00515055 10.6875 40.3125 C11.20844238 39.59457275 11.72938477 38.87664551 12.26611328 38.13696289 C40.48798677 -0.71938126 40.48798677 -0.71938126 64.49829102 -5.21362305 C76.80094575 -7.04164516 92.61653334 -8.45754254 103.4765625 -1.52734375 C111.10121668 4.81755399 115.36971154 11.15460239 116.5 21.1875 C116.90533492 28.41146904 116.52745807 34.34863681 112.125 40.3125 C102.36422973 50.25073883 89.07987418 54.01585545 76 57.4375 C49.55598717 64.36859372 35.49736688 77.22166091 21.45556641 100.34082031 C10.47247937 119.16764266 9.54487243 139.48417496 9.52978516 160.8581543 C9.52510328 162.37092228 9.51995752 163.88368888 9.51438904 165.39645386 C9.50320914 168.62653657 9.49472742 171.85661062 9.48826981 175.08670616 C9.47748645 180.20267944 9.45721914 185.31858904 9.43515015 190.43452454 C9.37355785 204.97267763 9.31918146 219.51082397 9.28613281 234.04907227 C9.26775355 242.0995189 9.23878834 250.1498556 9.1981281 258.20022136 C9.17713748 262.44923528 9.1616119 266.6981113 9.15932083 270.94717979 C9.15716432 274.94058318 9.14119353 278.93369805 9.11493111 282.9270134 C9.10777853 284.38539727 9.10561736 285.84381625 9.10903358 287.30221367 C9.13358496 299.78300279 8.15788207 308.96628393 -0.80859375 318.10546875 C-8.18709204 324.60913729 -14.88102817 326.15873433 -24.6875 325.79296875 C-33.33007282 324.64745533 -39.99566307 320.12823245 -45.3125 313.3125 C-50.84222695 304.91675604 -50.46070125 295.70671529 -50.44621277 285.97769165 C-50.44847833 284.85493501 -50.45074388 283.73217837 -50.45307809 282.5753988 C-50.4593948 278.82320455 -50.45859022 275.07104663 -50.45776367 271.31884766 C-50.46075658 268.6245663 -50.46413126 265.93028777 -50.46794128 263.23600769 C-50.47623015 256.68313642 -50.47899531 250.13027415 -50.47955366 243.57739808 C-50.48002959 238.24920255 -50.48208817 232.92100999 -50.48525429 227.5928154 C-50.49405548 212.4729154 -50.49867442 197.35302249 -50.49792381 182.23311992 C-50.49788386 181.4188466 -50.4978439 180.60457327 -50.49780273 179.765625 C-50.49774141 178.54271708 -50.49774141 178.54271708 -50.49767885 177.29510395 C-50.49727237 164.08154262 -50.50684388 150.86800978 -50.5209411 137.65445669 C-50.53531537 124.07366408 -50.54221073 110.49288535 -50.54134732 96.91208494 C-50.54101575 89.29276346 -50.54374542 81.67347187 -50.55452538 74.05415726 C-50.56364413 67.56766344 -50.56579428 61.08121307 -50.55901595 54.59471561 C-50.55575789 51.28815108 -50.55676181 47.98168686 -50.5643692 44.67512703 C-50.57209573 41.08376916 -50.56743973 37.49262888 -50.55973816 33.90127563 C-50.56488172 32.86585023 -50.57002529 31.83042482 -50.57532471 30.76362288 C-50.52690892 20.52088784 -49.5674855 10.98957269 -42.3671875 3.2109375 C-30.69758116 -7.97074105 -13.51244158 -9.26928235 0 0 Z " fill="#FF0F22" transform="translate(1399.3125,763.6875)"/>
<path d="M0 0 C6.22689561 4.46586968 10.31244024 8.94319709 11.73828125 16.640625 C12.11422658 21.11597419 12.24573786 25.5894368 12.36328125 30.078125 C12.42128906 31.89086914 12.42128906 31.89086914 12.48046875 33.74023438 C12.57427583 36.70688317 12.65997371 39.67353336 12.73828125 42.640625 C13.42792969 41.61324219 14.11757812 40.58585938 14.828125 39.52734375 C27.63917054 20.57791108 40.45894227 2.62950059 63.73828125 -3.359375 C70.02560057 -4.54885305 76.16881652 -4.61818489 82.55078125 -4.671875 C83.68837891 -4.70087891 84.82597656 -4.72988281 85.99804688 -4.75976562 C96.46206877 -4.83826088 103.38174004 -2.2927615 111.015625 4.85546875 C116.86074066 10.9126521 118.75810682 17.37051588 119.05078125 25.578125 C118.89650717 31.84550966 117.77191042 37.30695218 113.59375 42.1015625 C102.36705914 52.08425615 88.54651584 56.31149658 74.19335938 59.77661133 C61.09911051 63.00095377 51.21575015 68.0180928 41.73828125 77.640625 C41.0628125 78.31738281 40.38734375 78.99414062 39.69140625 79.69140625 C21.21757096 99.31061932 13.01058176 122.41290171 12.18676758 149.03027344 C12.16582649 149.68274536 12.1448854 150.33521728 12.12330973 151.00746107 C11.66849331 165.35809248 11.58751407 179.70705876 11.56961632 194.06391144 C11.56352987 198.53855456 11.54684898 203.01312535 11.52827454 207.48773193 C11.52194461 209.03895949 11.51561892 210.59018706 11.50929737 212.14141464 C11.50613156 212.91589935 11.50296575 213.69038405 11.499704 214.48833799 C11.45804513 224.85028787 11.4245321 235.21218998 11.41235352 245.57421875 C11.40395717 252.64734416 11.38144952 259.72027454 11.34299785 266.7933023 C11.32337053 270.51002828 11.31078977 274.22646384 11.31583214 277.94324493 C11.32136508 282.06692872 11.29602215 286.18988205 11.26831055 290.31347656 C11.27821266 292.12445328 11.27821266 292.12445328 11.28831482 293.97201538 C11.18656412 303.2067547 9.49661592 311.88229033 2.73828125 318.640625 C-5.27319437 325.5002361 -11.92487334 327.18144807 -22.49609375 327.015625 C-30.29533258 326.23893732 -36.49315228 322.47725478 -41.67974478 316.65996462 C-47.22192089 309.58555251 -47.84228231 302.38216624 -47.77638245 293.65406799 C-47.78332797 292.4732872 -47.7902735 291.2925064 -47.7974295 290.07594436 C-47.81249476 286.82033235 -47.80978373 283.56531238 -47.79927647 280.30970085 C-47.79225851 276.79016783 -47.80830198 273.2707264 -47.8212738 269.7512207 C-47.84287582 262.86489391 -47.84279671 255.97873261 -47.83464826 249.09238309 C-47.82833919 243.49341087 -47.82949359 237.89448679 -47.83592033 232.29551506 C-47.83682199 231.4975423 -47.83772364 230.69956954 -47.83865262 229.87741579 C-47.84050389 228.25615389 -47.84236645 226.63489201 -47.84424018 225.01363014 C-47.86080543 209.82278166 -47.85211033 194.63202615 -47.8352546 179.44118326 C-47.82055899 165.55509757 -47.83518629 151.66922829 -47.86402477 137.78317047 C-47.89344397 123.51075704 -47.90438368 109.23844339 -47.89484257 94.96600097 C-47.89382005 93.35051757 -47.89282544 91.73503415 -47.89185905 90.1195507 C-47.89138266 89.32478485 -47.89090627 88.53001899 -47.89041545 87.71116932 C-47.88825464 82.12222756 -47.89803763 76.53338065 -47.91263008 70.94445992 C-47.93017859 64.12852788 -47.93000016 57.31287165 -47.90727843 50.49695034 C-47.8961588 47.0221478 -47.89292101 43.54783073 -47.91157913 40.07304955 C-47.92751634 36.29962642 -47.9125491 32.52752659 -47.88990784 28.75416565 C-47.90174357 27.66494908 -47.91357929 26.57573252 -47.92577368 25.45350939 C-47.82657593 17.29969387 -45.93001156 10.56011798 -40.25367457 4.49507242 C-29.25866646 -5.71634381 -13.11408437 -7.88204034 0 0 Z " fill="#FF0F22" transform="translate(2906.26171875,762.359375)"/>
<path d="M0 0 C6.40916693 4.939296 10.82068253 10.5592464 12.890625 18.45703125 C13.31049703 22.40308389 13.30016073 26.31985174 13.27830505 30.28536987 C13.28369059 31.46121269 13.28907613 32.63705551 13.29462487 33.84852993 C13.30641823 37.09491171 13.30485102 40.34096232 13.29745805 43.58734679 C13.29271588 47.09529333 13.30524551 50.60318554 13.31547546 54.1111145 C13.33264861 60.97683468 13.33350653 67.84246329 13.32826256 74.70819937 C13.32421667 80.29050299 13.32566939 85.8727796 13.33101082 91.45508194 C13.33175924 92.25041483 13.33250766 93.04574772 13.33327876 93.8651816 C13.33481029 95.48104802 13.33634863 97.09691444 13.33789373 98.71278085 C13.35161353 113.85735106 13.34618486 129.00186958 13.33470852 144.14643861 C13.32477781 157.99052546 13.3377149 171.83447863 13.36164271 185.67854486 C13.38604673 199.90571645 13.39563831 214.1328258 13.38898998 228.3600179 C13.38550051 236.34266048 13.38771179 244.32520028 13.40524101 252.307827 C13.41997935 259.10361848 13.42057727 265.89923482 13.4031701 272.69502293 C13.39467083 276.15963296 13.39248378 279.62393032 13.40782166 283.08852386 C13.42102059 286.85088523 13.4094919 290.61240019 13.39183044 294.37472534 C13.40623795 296.00373695 13.40623795 296.00373695 13.42093652 297.66565788 C13.33739211 306.33306874 11.58366465 313.74515522 5.703125 320.33203125 C-1.12089572 326.55436412 -9.5877667 328.84054584 -18.65234375 328.66015625 C-27.76944201 327.90643747 -34.10537419 324.34325258 -40.109375 317.45703125 C-43.32166913 312.46998898 -45.23137927 307.54994788 -45.24359608 301.61522484 C-45.24805392 300.61158406 -45.25251176 299.60794327 -45.25710469 298.57388914 C-45.25692033 297.46817363 -45.25673597 296.36245812 -45.25654602 295.22323608 C-45.26022271 294.05095982 -45.2638994 292.87868356 -45.2676875 291.67088377 C-45.27681592 288.41137777 -45.28142439 285.15190136 -45.28407681 281.89238477 C-45.28797974 278.37893214 -45.29755816 274.8654941 -45.30628967 271.35205078 C-45.3260554 262.863755 -45.33612087 254.37545803 -45.34501746 245.88714498 C-45.34940058 241.88957195 -45.35476737 237.89200024 -45.36000633 233.89442825 C-45.37701946 220.6047334 -45.3915132 207.31503938 -45.39875507 194.02533531 C-45.40066496 190.57629775 -45.4025853 187.12726019 -45.40454102 183.67822266 C-45.40502476 182.8209829 -45.4055085 181.96374314 -45.4060069 181.08052643 C-45.41430555 167.19665713 -45.4396393 153.31287404 -45.47212169 139.42904238 C-45.505201 125.17379578 -45.52320466 110.91859297 -45.52639931 96.66330779 C-45.52856371 88.65992808 -45.53730191 80.65667405 -45.56286049 72.65333176 C-45.5845795 65.83654739 -45.59261208 59.01991922 -45.58289371 52.20310418 C-45.57835229 48.72648877 -45.5802254 45.25019554 -45.59965515 41.77362442 C-45.61732423 37.99972042 -45.61029106 34.22663262 -45.59712219 30.45272827 C-45.60809144 29.36039709 -45.61906068 28.26806592 -45.63036233 27.1426338 C-45.55460689 18.14397087 -43.17880109 10.66739773 -36.8984375 4.03125 C-27.6291233 -4.12493695 -11.06220179 -6.16260454 0 0 Z " fill="#FF0F22" transform="translate(1573.109375,760.54296875)"/>
<path d="M0 0 C8.03548768 6.49077286 12.09394439 14.32186043 13.80078125 24.45703125 C14.88457571 36.77962579 12.66881215 46.78900272 4.80078125 56.45703125 C-2.13852136 64.09366574 -11.05454023 66.95928501 -21.1796875 67.4921875 C-32.41694194 67.36135271 -41.13876183 63.95171463 -49.375 56.37890625 C-57.82104368 47.4807189 -58.69198806 37.49385126 -58.44140625 25.78125 C-58.04224176 16.5392088 -54.64380671 10.08896188 -48.19921875 3.45703125 C-35.0428898 -7.56259464 -14.42531021 -10.12077714 0 0 Z " fill="#FF0F22" transform="translate(1579.19921875,649.54296875)"/>
</svg>
